<?xml version="1.0" standalone="no"?><!DOCTYPE svg PUBLIC "-//W3C//DTD SVG 1.1//EN"
  "http://www.w3.org/Graphics/SVG/1.1/DTD/svg11.dtd">
<svg t="1655198057981" class="icon" viewBox="0 0 1024 1024" version="1.1" xmlns="http://www.w3.org/2000/svg"
     p-id="57979" xmlns:xlink="http://www.w3.org/1999/xlink" width="200" height="200">
  <path
    d="M438.7 829.1H259.5c-42.3 0-76.8-34.5-76.8-76.8v-512c0-42.3 34.5-76.8 76.8-76.8h409.6c42.3 0 76.8 34.5 76.8 76.8v153.6c0 14.2-11.4 25.6-25.6 25.6-14.2 0-25.6-11.4-25.6-25.6V240.3c0-14.1-11.5-25.6-25.6-25.6H259.5c-14.1 0-25.6 11.5-25.6 25.6v512c0 14.1 11.5 25.6 25.6 25.6h179.2c14.2 0 25.6 11.4 25.6 25.6 0 14.2-11.4 25.6-25.6 25.6z m0 0"
    fill="" p-id="57980"></path>
  <path
    d="M681.9 880.3c-58.2 0-112.8-22.6-153.8-63.8-41.1-41-63.8-95.7-63.8-153.8 0-58.2 22.6-112.8 63.8-153.8 41-41.1 95.7-63.8 153.8-63.8 58.2 0 112.8 22.6 153.8 63.8 41 41.1 63.8 95.8 63.8 153.8 0 58.2-22.6 112.8-63.8 153.8-41.1 41.1-95.6 63.8-153.8 63.8z m0-384c-91.8 0-166.4 74.6-166.4 166.4 0 91.8 74.6 166.4 166.4 166.4 91.8 0 166.4-74.6 166.4-166.4 0-91.8-74.6-166.4-166.4-166.4z m0 0M617.9 368.3H310.7c-14.2 0-25.6-11.4-25.6-25.6 0-14.2 11.4-25.6 25.6-25.6h307.2c14.2 0 25.6 11.4 25.6 25.6 0 14.2-11.4 25.6-25.6 25.6z m0 0M438.7 521.9h-128c-14.2 0-25.6-11.4-25.6-25.6s11.4-25.6 25.6-25.6h128c14.2 0 25.6 11.4 25.6 25.6s-11.4 25.6-25.6 25.6z m0 0M387.5 675.5h-76.8c-14.2 0-25.6-11.4-25.6-25.6 0-14.2 11.4-25.6 25.6-25.6h76.8c14.2 0 25.6 11.4 25.6 25.6 0 14.2-11.4 25.6-25.6 25.6z m0 0"
    fill="" p-id="57981"></path>
  <path
    d="M757.8 660.3L682.6 709c-11.9 7.7-27.7 4.3-35.4-7.6-7.7-11.9-4.3-27.7 7.6-35.4l75.2-48.7c11.9-7.7 27.7-4.3 35.4 7.6 7.6 11.9 4.3 27.7-7.6 35.4z m0 0"
    fill="" p-id="57982"></path>
  <path
    d="M647.2 701.4l-48.7-75.2c-7.7-11.9-4.3-27.7 7.6-35.4 11.9-7.7 27.7-4.3 35.4 7.6l48.7 75.2c7.7 11.9 4.3 27.7-7.6 35.4-11.9 7.7-27.7 4.3-35.4-7.6z m0 0"
    fill="" p-id="57983"></path>
</svg>
